<?xml version="1.0" encoding="UTF-8" standalone="no"?>
<svg xmlns:xlink="http://www.w3.org/1999/xlink" height="271.6px" width="213.5px" xmlns="http://www.w3.org/2000/svg">
  <g transform="matrix(1.0, 0.0, 0.0, 1.0, 106.75, 135.8)">
    <use height="271.6" transform="matrix(1.0, 0.0, 0.0, 1.0, -106.75, -135.8)" width="213.5" xlink:href="#shape0"/>
  </g>
  <defs>
    <g id="shape0" transform="matrix(1.0, 0.0, 0.0, 1.0, 106.75, 135.8)">
      <path d="M12.1 -135.8 Q32.05 -135.8 45.9 -122.0 59.7 -108.0 59.7 -88.45 59.7 -68.55 45.9 -55.15 32.05 -41.4 12.1 -41.4 2.4 -41.4 -5.3 -44.35 L-20.0 -34.4 Q-20.95 -33.5 -22.25 -33.9 -23.4 -34.8 -23.4 -36.15 L-22.25 -56.1 Q-35.2 -69.95 -35.2 -88.45 -35.2 -108.0 -21.35 -122.0 -7.55 -135.8 12.1 -135.8 M43.6 -100.25 Q45.4 -103.0 42.5 -104.55 39.75 -106.4 37.95 -103.15 L19.85 -69.95 Q18.5 -66.95 21.35 -65.75 23.95 -64.55 25.5 -66.95 L43.6 -100.25 M15.55 -69.45 Q17.6 -72.85 17.6 -76.5 17.6 -79.4 16.0 -82.8 14.2 -86.2 10.8 -87.4 L3.3 -89.85 Q-1.9 -91.2 -2.9 -92.0 -3.9 -92.8 -3.9 -95.5 -3.9 -97.75 -2.35 -98.9 -0.5 -100.65 2.9 -100.65 5.55 -100.65 8.05 -98.9 9.45 -97.75 10.4 -93.7 L10.8 -92.1 Q11.6 -90.55 13.75 -90.95 15.45 -91.2 16.05 -92.15 16.5 -92.9 16.45 -94.1 16.45 -98.0 14.6 -101.15 12.1 -104.55 9.9 -105.5 6.95 -107.3 2.4 -107.3 -3.0 -107.3 -6.65 -103.65 -10.45 -100.25 -10.45 -95.0 -10.45 -91.6 -9.35 -89.7 -7.95 -87.2 -5.15 -85.95 L8.25 -80.35 Q10.15 -79.6 10.8 -78.5 11.45 -77.1 11.35 -75.65 11.2 -73.35 9.45 -71.7 6.95 -69.95 3.75 -69.95 1.25 -69.95 -0.8 -71.0 -3.5 -72.2 -4.4 -73.7 -5.3 -75.1 -5.3 -78.5 -5.4 -79.45 -6.1 -80.05 -7.05 -80.8 -8.7 -80.8 -12.1 -80.75 -11.75 -77.75 -10.95 -70.85 -7.55 -67.45 -3.5 -63.4 3.3 -63.4 7.65 -63.4 10.2 -64.75 14.2 -66.95 15.55 -69.45" fill="#00d0b4" fill-rule="evenodd" stroke="none"/>
      <path d="M25.0 53.1 L84.85 47.15 Q88.7 46.2 90.9 50.95 93.4 57.5 87.1 58.7 L34.15 65.95 22.8 67.4 Q22.55 69.4 21.7 72.25 20.85 75.1 19.4 77.05 17.9 79.0 14.8 78.7 11.7 78.4 11.2 75.05 10.65 71.65 11.05 69.25 -15.85 72.5 -48.95 80.85 L-50.3 84.25 Q-57.4 106.95 -67.35 119.8 -74.55 129.75 -81.65 133.4 -92.4 138.65 -100.15 132.5 -108.55 125.95 -106.25 115.05 -101.45 92.65 -81.2 78.65 -77.7 76.3 -59.85 66.65 L-52.65 44.4 Q-56.0 48.3 -60.1 51.0 -67.35 55.75 -74.0 51.85 -80.2 48.3 -78.9 39.75 -78.2 34.95 -73.85 18.9 -72.4 13.65 -70.25 8.45 -68.9 5.45 -68.9 1.2 -68.4 -5.4 -64.6 -4.95 -60.8 -4.95 -58.45 -2.7 -55.95 -0.2 -56.9 2.95 L-62.25 21.4 Q-64.6 29.45 -64.8 32.2 -65.0 34.95 -62.55 36.75 -59.4 38.4 -56.0 35.5 -52.65 32.6 -51.25 28.2 L-39.45 -3.6 Q-36.95 -12.15 -28.55 -14.0 -21.85 -15.4 -23.4 -8.35 L-43.75 63.9 -30.4 61.85 5.1 56.25 14.1 54.65 16.45 42.8 Q11.8 45.75 6.8 45.65 1.8 45.5 -0.5 38.75 -2.05 42.4 -4.8 45.35 -10.05 50.95 -17.95 48.3 -24.35 46.7 -26.55 38.75 -29.05 25.4 -23.4 8.45 -19.1 -3.1 -12.3 -11.05 -3.5 -20.55 7.15 -14.0 9.45 -17.9 10.8 -18.3 12.1 -19.2 15.55 -18.3 19.85 -17.15 19.45 -12.65 L12.1 26.3 Q11.7 29.75 13.3 30.1 15.4 30.45 17.45 28.4 19.45 26.3 19.9 23.95 L27.55 -16.2 Q28.5 -19.6 32.05 -21.05 35.45 -21.95 37.95 -19.2 38.85 -18.3 38.85 -15.8 L43.0 -19.95 Q48.4 -24.85 54.45 -23.05 60.6 -21.45 62.45 -14.5 66.25 -1.5 60.0 18.9 56.7 29.7 50.65 36.25 41.6 46.7 29.8 38.35 L27.55 36.75 25.0 53.1 M-81.65 116.0 Q-72.5 105.6 -65.0 85.15 -82.05 93.55 -89.25 106.95 -91.5 111.25 -93.15 116.35 -94.0 118.9 -92.0 121.2 -90.2 122.95 -87.5 121.15 -84.95 119.4 -81.65 116.0 M87.7 -15.25 Q82.8 -7.45 80.55 -1.5 80.05 0.1 81.85 -0.55 91.4 -3.6 94.4 -11.1 96.1 -15.3 93.7 -17.1 90.5 -19.6 87.7 -15.25 M76.85 16.2 Q77.15 22.5 79.15 24.05 82.35 26.8 87.5 23.15 92.35 20.25 97.05 15.4 101.4 11.1 103.4 16.35 105.6 22.0 101.4 26.3 92.35 36.25 82.8 38.85 75.8 40.6 71.0 37.15 65.85 34.0 64.65 27.75 63.8 23.45 64.1 19.35 66.25 -8.75 83.05 -25.25 87.75 -29.6 94.85 -29.6 100.9 -29.15 104.3 -25.25 107.45 -21.45 106.55 -15.4 104.55 -5.45 97.7 1.7 90.8 8.95 81.45 10.7 79.55 11.05 77.75 10.75 76.7 13.7 76.85 16.2 M31.65 25.9 Q30.7 28.8 34.55 29.4 42.0 30.2 45.2 23.45 51.05 11.1 51.55 -1.5 51.55 -4.5 50.65 -6.75 49.75 -9.25 48.4 -9.4 46.35 -10.55 43.75 -8.2 40.2 -4.95 38.85 -0.2 36.35 7.3 31.65 25.9 M5.55 -1.1 Q6.05 -3.1 4.65 -4.5 3.3 -5.85 0.65 -4.95 -2.9 -3.8 -5.3 -1.5 -12.95 6.35 -15.3 23.15 -15.45 28.35 -13.55 31.1 -12.3 32.85 -10.05 33.1 -7.95 33.5 -5.8 32.4 -3.65 31.3 -2.85 28.55 L5.55 -1.1" fill="#ffffff" fill-rule="evenodd" stroke="none"/>
    </g>
  </defs>
</svg>
